<svg xmlns="http://www.w3.org/2000/svg" xmlns:xlink="http://www.w3.org/1999/xlink" viewBox="0 0 501.37 86.75"><defs><style>.cls-1{fill:#0d5264;}.cls-2{fill:#13b09d;}.cls-3{fill:#fff;}.cls-4{fill:url(#linear-gradient);}.cls-5{fill:url(#linear-gradient-2);}</style><linearGradient id="linear-gradient" x1="300.42" y1="-1.25" x2="327.77" y2="-1.25" gradientTransform="translate(-3.78 36.37) rotate(4.07)" gradientUnits="userSpaceOnUse"><stop offset="0.09" stop-color="#fff"/><stop offset="0.16" stop-color="#e6f7f5"/><stop offset="0.52" stop-color="#77d1c6"/><stop offset="0.77" stop-color="#31b9a8"/><stop offset="0.89" stop-color="#16b09d"/></linearGradient><linearGradient id="linear-gradient-2" x1="300.88" y1="-17.79" x2="328.23" y2="-17.79" gradientTransform="translate(-3.78 36.37) rotate(4.07)" gradientUnits="userSpaceOnUse"><stop offset="0.07" stop-color="#16b09d"/><stop offset="0.16" stop-color="#27b6a4"/><stop offset="0.34" stop-color="#53c5b7"/><stop offset="0.6" stop-color="#9bddd5"/><stop offset="0.91" stop-color="#fcfefe"/><stop offset="0.92" stop-color="#fff"/></linearGradient></defs><title>WPT-ORGAsset 5</title><g id="Layer_2" data-name="Layer 2"><g id="Layer_3" data-name="Layer 3"><rect class="cls-1" width="501.37" height="86.75"/><path class="cls-2" d="M394,25.88a19.31,19.31,0,1,1-19.31,19.36A19.34,19.34,0,0,1,394,25.88Zm0,32.18c7,0,12.34-5.74,12.34-12.82S401,32.31,394,32.31s-12.34,5.79-12.34,12.93S387.06,58.06,394,58.06Z"/><path class="cls-2" d="M444.34,58.86A3.69,3.69,0,0,1,445,61a3.56,3.56,0,0,1-3.49,3.54,3.4,3.4,0,0,1-2.79-1.39l-8.74-12h-6.54V61A3.45,3.45,0,0,1,420,64.49,3.53,3.53,0,0,1,416.5,61V29.9A3.52,3.52,0,0,1,420,26.41h12.34a12.76,12.76,0,0,1,12.76,12.76,12.08,12.08,0,0,1-7.29,11ZM423.42,44.7h9A5.76,5.76,0,0,0,438.22,39a6.11,6.11,0,0,0-5.85-6.17h-9Z"/><path class="cls-2" d="M466.86,25.88c4.72,0,9.81,1.77,12.71,4.88a3.68,3.68,0,0,1,1,2.47,3.15,3.15,0,0,1-3.06,3,4.35,4.35,0,0,1-3-1.34,11.92,11.92,0,0,0-7.62-2.63c-6.76,0-12.23,5.85-12.23,12.93s5.47,12.93,12.23,12.93a11.93,11.93,0,0,0,8.42-3.06V48.94h-8.42a3.31,3.31,0,0,1-3.49-3.33,3.25,3.25,0,0,1,3.49-3.17h11.91a3.5,3.5,0,0,1,3.49,3.43v9.87A3.57,3.57,0,0,1,481.4,58a19,19,0,0,1-14.53,6.49,19.31,19.31,0,0,1,0-38.62Z"/><path class="cls-3" d="M154.55,39.45c-.11.91-.48,1.39-1.07,1.39-.21,0-1.29-.21-2.09-.21a7.12,7.12,0,0,0-6.06,3.22V61.06a1.39,1.39,0,0,1-1.56,1.56h-3.22A1.39,1.39,0,0,1,139,61.06V37.25a1.4,1.4,0,0,1,1.5-1.56l2.63-.27a1.35,1.35,0,0,1,1.66,1.45l.05,2.57a7.45,7.45,0,0,1,7-4.4,7.34,7.34,0,0,1,1.93.21,1.39,1.39,0,0,1,.91,1.66Z"/><path class="cls-3" d="M155.43,55.86a7.38,7.38,0,0,1,3-6.06c2.15-1.88,6.54-3.06,12.6-3.11V46a9.36,9.36,0,0,0-.48-3.59c-.7-1.61-2.31-2.41-4.72-2.41a15.26,15.26,0,0,0-4.88.8c-1.61.48-2.47.75-2.52.75-.7,0-1.07-.43-1.13-1.23l-.16-1.39a2,2,0,0,1,1.23-2.09,19.46,19.46,0,0,1,8.21-1.77c4.45,0,7.46,1.29,9.12,3.86,1,1.5,1.45,4,1.45,7.51v8.85c0,2.41.54,3.27,2.31,3.54,1.07.27,1.61.8,1.55,1.66l-.05.91A1.51,1.51,0,0,1,179.51,63a20,20,0,0,1-2.25.16c-2.74,0-4.56-1.07-5.36-3.16a11.68,11.68,0,0,1-8.26,3.22C158.86,63.21,155.43,60.37,155.43,55.86Zm15.61.7V50.82c-7.13-.16-9.87,1.82-9.87,4.4,0,1.93,1.56,3.38,4.34,3.38A9,9,0,0,0,171,56.56Z"/><path class="cls-3" d="M202.19,62.62a1.39,1.39,0,0,1-1.56-1.56V48.67a31,31,0,0,0-.16-3.38c-.32-3.27-2-4.93-5-4.93a8.2,8.2,0,0,0-6,2.63V61.06A1.39,1.39,0,0,1,188,62.62h-3.22a1.39,1.39,0,0,1-1.56-1.56V37.25a1.46,1.46,0,0,1,1.5-1.61l2.63-.21c1-.11,1.61.32,1.66,1.29l.05,2.15A10.59,10.59,0,0,1,197.52,35c4.24,0,7,1.77,8.42,5.31.64,1.5,1,4.13,1,7.83V61.06a1.39,1.39,0,0,1-1.56,1.56Z"/><path class="cls-3" d="M226.45,60.47c-1.77,1.77-4.5,2.63-8.1,2.63a18.7,18.7,0,0,1-6-1c-1.56-.48-1.93-.91-1.93-2l-.05-1.66c0-.91.38-1.39,1.13-1.39.11,0,.86.21,2.2.59a16.08,16.08,0,0,0,4.24.54c3.17,0,4.72-1.5,4.72-3.22,0-1.45-.86-2.52-3.92-3.59l-2.31-.8c-4.08-1.45-6.11-3.92-6.11-7.46A7.53,7.53,0,0,1,213,37.52c1.77-1.66,4.34-2.52,7.72-2.52a18.92,18.92,0,0,1,5.69.8c1.13.32,1.61,1,1.5,1.93l-.16,1.5c-.05.91-.48,1.34-1.23,1.34a15.55,15.55,0,0,1-2-.37,15.27,15.27,0,0,0-3.43-.38c-3,0-4.45,1.34-4.45,2.9,0,1.34.91,2.31,3.92,3.33l2.31.8c4.24,1.45,6.33,4,6.33,7.67A8.26,8.26,0,0,1,226.45,60.47Z"/><path class="cls-3" d="M234.17,62.62a1.39,1.39,0,0,1-1.56-1.56V23a1.46,1.46,0,0,1,1.5-1.61l3.16-.27c1.13-.11,1.66.38,1.66,1.5V61.06a1.39,1.39,0,0,1-1.56,1.56Z"/><path class="cls-3" d="M241.9,55.86a7.38,7.38,0,0,1,3-6.06c2.15-1.88,6.54-3.06,12.6-3.11V46A9.36,9.36,0,0,0,257,42.4c-.7-1.61-2.31-2.41-4.72-2.41a15.26,15.26,0,0,0-4.88.8c-1.61.48-2.47.75-2.52.75-.7,0-1.07-.43-1.13-1.23l-.16-1.39a2,2,0,0,1,1.23-2.09,19.46,19.46,0,0,1,8.21-1.77c4.45,0,7.46,1.29,9.12,3.86,1,1.5,1.45,4,1.45,7.51v8.85c0,2.41.54,3.27,2.31,3.54,1.07.27,1.61.8,1.55,1.66l-.05.91A1.51,1.51,0,0,1,266,63a20,20,0,0,1-2.25.16c-2.74,0-4.56-1.07-5.36-3.16a11.68,11.68,0,0,1-8.26,3.22C245.33,63.21,241.9,60.37,241.9,55.86Zm15.61.7V50.82c-7.13-.16-9.87,1.82-9.87,4.4,0,1.93,1.56,3.38,4.34,3.38A9,9,0,0,0,257.51,56.56Z"/><path class="cls-3" d="M284.54,60.53a1.6,1.6,0,0,1-1.18,1.72,13.12,13.12,0,0,1-4.56.86c-6,0-8.9-3.06-8.9-9.22V41h-2.47a1.39,1.39,0,0,1-1.56-1.55V38.16a1.56,1.56,0,0,1,1.45-1.66l3-.32.59-4.34a1.45,1.45,0,0,1,1.61-1.45l2.15-.05a1.41,1.41,0,0,1,1.61,1.56v4.29h6a1.36,1.36,0,0,1,1.55,1.61l-.11,1.72A1.41,1.41,0,0,1,282,41h-5.79V53.23q0,4.67,4.18,4.67c1,0,2.68-.43,3.06-.43a1.19,1.19,0,0,1,1.18,1.39Z"/><path class="cls-3" d="M286.15,26.47a3.44,3.44,0,0,1,1.13-2.68,4.11,4.11,0,0,1,2.9-1.07A3.89,3.89,0,0,1,293,23.79a3.56,3.56,0,0,1,1.13,2.74,3.81,3.81,0,0,1-4,3.81A3.63,3.63,0,0,1,286.15,26.47Zm2.41,36.15A1.39,1.39,0,0,1,287,61.06V37.79a1.46,1.46,0,0,1,1.5-1.61l3.16-.27c1.13-.11,1.66.38,1.66,1.5V61.06a1.39,1.39,0,0,1-1.56,1.56Z"/><path class="cls-3" d="M346.23,62.62a1.39,1.39,0,0,1-1.56-1.56V48.67a31,31,0,0,0-.16-3.38c-.32-3.27-2-4.93-5-4.93a8.2,8.2,0,0,0-6,2.63V61.06A1.39,1.39,0,0,1,332,62.62H328.8a1.39,1.39,0,0,1-1.56-1.56V37.25a1.46,1.46,0,0,1,1.5-1.61l2.63-.21c1-.11,1.61.32,1.66,1.29l.05,2.15A10.59,10.59,0,0,1,341.57,35c4.24,0,7,1.77,8.42,5.31.64,1.5,1,4.13,1,7.83V61.06a1.39,1.39,0,0,1-1.56,1.56Z"/><path class="cls-3" d="M370.49,60.47c-1.77,1.77-4.5,2.63-8.1,2.63a18.7,18.7,0,0,1-6-1c-1.56-.48-1.93-.91-1.93-2l-.05-1.66c0-.91.38-1.39,1.13-1.39.11,0,.86.21,2.2.59a16.08,16.08,0,0,0,4.24.54c3.17,0,4.72-1.5,4.72-3.22,0-1.45-.86-2.52-3.92-3.59l-2.31-.8c-4.08-1.45-6.11-3.92-6.11-7.46A7.53,7.53,0,0,1,357,37.52c1.77-1.66,4.34-2.52,7.72-2.52a18.92,18.92,0,0,1,5.69.8c1.13.32,1.61,1,1.5,1.93l-.16,1.5c-.05.91-.48,1.34-1.23,1.34a15.55,15.55,0,0,1-2-.37,15.27,15.27,0,0,0-3.43-.38c-3,0-4.45,1.34-4.45,2.9,0,1.34.91,2.31,3.92,3.33l2.31.8c4.24,1.45,6.33,4,6.33,7.67A8.26,8.26,0,0,1,370.49,60.47Z"/><path class="cls-3" d="M68.2,59.67a3.55,3.55,0,0,1-3.65,3.49H62.73a3.94,3.94,0,0,1-3.27-1.77L50.28,48.62,41.06,61.39a4,4,0,0,1-3.33,1.77H35.91a3.53,3.53,0,0,1-3.59-3.49l-2.09-32c0-2,1.5-2.59,3.54-2.59,2.25,0,3.49.5,3.59,2.49L38.8,53.77l7.72-11.26a4.76,4.76,0,0,1,3.7-2.15A4.78,4.78,0,0,1,54,42.51l7.67,11.21,1.5-26.16c.11-2,1.45-2.49,3.54-2.49s3.59.56,3.59,2.59Z"/><path class="cls-3" d="M79.61,25.08h11.8a12.74,12.74,0,1,1,0,25.48H83.1V60.62c0,1.93-1.56,2.54-3.49,2.54s-3.54-.61-3.54-2.54V28.56A3.56,3.56,0,0,1,79.61,25.08Zm3.49,19h8.31a6.38,6.38,0,0,0,6-6.28c0-3.33-2.84-6.33-6-6.33H83.1Z"/><path class="cls-3" d="M107.4,52.21c-1,0-2.37-1.39-2.37-3.11S106.37,46,107.4,46h5.76c1,0,2.33,1.45,2.33,3.11s-1.34,3.11-2.33,3.11Z"/><path class="cls-3" d="M141.77,28.29c0,1.93-.56,3.22-2.49,3.22H130v29.1c0,1.93-1.56,2.54-3.54,2.54s-3.54-.61-3.54-2.54V31.51h-9.21c-1.93,0-2.54-1.29-2.54-3.22s.61-3.22,2.54-3.22h25.55C141.22,25.08,141.77,26.31,141.77,28.29Z"/><path class="cls-4" d="M300.07,58.81c-.8.72-1.62,1.46-2.45,2.18a1.09,1.09,0,0,1-1.72-.27,1.41,1.41,0,0,1-.18-.76q.27-4.09.58-8.18a1.14,1.14,0,0,1,1.27-1.14c2.68.18,5.35.37,8,.57a1.12,1.12,0,0,1,1.06.86,1.16,1.16,0,0,1-.41,1.27c-.86.75-1.71,1.51-2.59,2.28a8.57,8.57,0,0,0,2.07,1.71c4.14,2.48,8.64,1.27,10.61-2.59.35-.68.55-1.87.89-2.56.18-.36,2.18,0,2.57,0,1.05.09,2.11.15,3.16.23.57,0,.78.38.61.92a14.39,14.39,0,0,1-6.3,8.15,12.78,12.78,0,0,1-6.18,1.87,13.4,13.4,0,0,1-9-2.8C301.4,60.06,300.77,59.43,300.07,58.81Z"/><path class="cls-5" d="M320.79,39.54c.8-.72,1.62-1.46,2.45-2.18a1.09,1.09,0,0,1,1.72.27,1.41,1.41,0,0,1,.18.76q-.27,4.09-.58,8.18a1.14,1.14,0,0,1-1.27,1.14c-2.68-.18-5.35-.37-8-.57a1.12,1.12,0,0,1-1.06-.86A1.16,1.16,0,0,1,314.6,45c.86-.75,1.71-1.51,2.59-2.28A8.57,8.57,0,0,0,315.12,41c-4.14-2.48-8.64-1.27-10.61,2.59-.35.68-.55,1.87-.89,2.56-.18.36-2.18,0-2.57,0-1.05-.09-2.11-.15-3.16-.23-.57,0-.78-.38-.61-.92a14.39,14.39,0,0,1,6.3-8.15A12.78,12.78,0,0,1,309.76,35a13.4,13.4,0,0,1,9,2.8C319.46,38.29,320.09,38.92,320.79,39.54Z"/></g></g></svg>